<mxfile host="65bd71144e">
    <diagram id="Ynv9TW57A_w1j0mWBJq0" name="Page-1">
        <mxGraphModel dx="1722" dy="726" grid="0" gridSize="10" guides="1" tooltips="1" connect="1" arrows="1" fold="1" page="1" pageScale="1" pageWidth="360" pageHeight="1130" background="none" math="0" shadow="1">
            <root>
                <mxCell id="0"/>
                <mxCell id="1" parent="0"/>
                <mxCell id="21" value="" style="edgeStyle=none;html=1;rounded=1;snapToPoint=1;comic=0;fillColor=#76608a;strokeColor=#432D57;labelBackgroundColor=none;strokeWidth=2;spacing=1;fontFamily=Lucida Console;fontSize=16;align=center;verticalAlign=middle;spacingTop=1;spacingLeft=2;spacingRight=2;spacingBottom=2;fontColor=#F0F0F0;shadow=0;backgroundOutline=0;sketchStyle=comic;" parent="1" source="14" target="20" edge="1">
                    <mxGeometry relative="1" as="geometry"/>
                </mxCell>
                <mxCell id="14" value="&lt;i style=&quot;font-size: 16px;&quot;&gt;WasteFootprint()&lt;br style=&quot;font-size: 16px;&quot;&gt;&lt;/i&gt;&lt;font style=&quot;font-size: 16px;&quot;&gt;central function&lt;/font&gt;" style="html=1;rounded=1;snapToPoint=1;comic=0;fillColor=#6d8764;strokeColor=#3A5431;fontColor=#F0F0F0;labelBackgroundColor=none;strokeWidth=2;spacing=1;fontFamily=Lucida Console;fontSize=16;whiteSpace=wrap;align=center;verticalAlign=middle;spacingTop=1;spacingLeft=2;spacingRight=2;spacingBottom=2;shadow=0;backgroundOutline=0;sketchStyle=comic;" parent="1" vertex="1">
                    <mxGeometry x="124" y="84" width="120" height="60" as="geometry"/>
                </mxCell>
                <mxCell id="25" value="" style="edgeStyle=none;html=1;rounded=1;snapToPoint=1;comic=0;fillColor=#76608a;strokeColor=#432D57;labelBackgroundColor=none;strokeWidth=2;spacing=1;fontFamily=Lucida Console;fontSize=16;align=center;verticalAlign=middle;spacingTop=1;spacingLeft=2;spacingRight=2;spacingBottom=2;fontColor=#F0F0F0;shadow=0;backgroundOutline=0;sketchStyle=comic;" parent="1" source="20" target="24" edge="1">
                    <mxGeometry relative="1" as="geometry"/>
                </mxCell>
                <mxCell id="20" value="&lt;i style=&quot;font-size: 16px;&quot;&gt;&lt;b style=&quot;font-size: 16px;&quot;&gt;&lt;font style=&quot;font-size: 16px;&quot;&gt;dbExplode.py&lt;br style=&quot;font-size: 16px;&quot;&gt;&lt;/font&gt;&lt;/b&gt;&lt;/i&gt;&lt;font style=&quot;font-size: 16px;&quot;&gt;&amp;nbsp;&lt;i style=&quot;font-size: 16px;&quot;&gt;wurst&lt;/i&gt;&amp;nbsp;unpacks&amp;nbsp; database&lt;/font&gt;" style="html=1;rounded=1;snapToPoint=1;comic=0;fillColor=#6d8764;strokeColor=#3A5431;fontColor=#F0F0F0;labelBackgroundColor=none;strokeWidth=2;spacing=1;fontFamily=Lucida Console;fontSize=16;whiteSpace=wrap;align=center;verticalAlign=middle;spacingTop=1;spacingLeft=2;spacingRight=2;spacingBottom=2;shadow=0;backgroundOutline=0;sketchStyle=comic;" parent="1" vertex="1">
                    <mxGeometry x="117" y="173" width="134" height="63" as="geometry"/>
                </mxCell>
                <mxCell id="27" value="" style="edgeStyle=none;html=1;rounded=1;snapToPoint=1;comic=0;fillColor=#76608a;strokeColor=#432D57;labelBackgroundColor=none;strokeWidth=2;spacing=1;fontFamily=Lucida Console;fontSize=16;align=center;verticalAlign=middle;spacingTop=1;spacingLeft=2;spacingRight=2;spacingBottom=2;fontColor=#F0F0F0;shadow=0;backgroundOutline=0;sketchStyle=comic;" parent="1" source="24" target="26" edge="1">
                    <mxGeometry relative="1" as="geometry"/>
                </mxCell>
                <mxCell id="24" value="&lt;b style=&quot;font-size: 16px;&quot;&gt;Output:&lt;/b&gt;&lt;br style=&quot;font-size: 16px;&quot;&gt;&lt;font style=&quot;font-size: 16px;&quot;&gt;a list of all exchanges&lt;br style=&quot;font-size: 16px;&quot;&gt;&lt;/font&gt;" style="shape=parallelogram;perimeter=parallelogramPerimeter;html=1;fixedSize=1;rounded=1;snapToPoint=1;comic=0;fillColor=#647687;strokeColor=#314354;fontColor=#F0F0F0;labelBackgroundColor=none;strokeWidth=2;spacing=1;fontFamily=Lucida Console;fontSize=16;whiteSpace=wrap;align=center;verticalAlign=middle;spacingTop=1;spacingLeft=2;spacingRight=2;spacingBottom=2;shadow=0;backgroundOutline=0;sketchStyle=comic;" parent="1" vertex="1">
                    <mxGeometry x="95.5" y="265" width="179" height="50" as="geometry"/>
                </mxCell>
                <mxCell id="31" value="" style="edgeStyle=none;html=1;rounded=1;snapToPoint=1;comic=0;fillColor=#76608a;strokeColor=#432D57;labelBackgroundColor=none;strokeWidth=2;spacing=1;fontFamily=Lucida Console;fontSize=16;align=center;verticalAlign=middle;spacingTop=1;spacingLeft=2;spacingRight=2;spacingBottom=2;fontColor=#F0F0F0;shadow=0;backgroundOutline=0;sketchStyle=comic;" parent="1" source="26" target="30" edge="1">
                    <mxGeometry relative="1" as="geometry"/>
                </mxCell>
                <mxCell id="26" value="&lt;font style=&quot;font-size: 16px;&quot;&gt;&lt;b style=&quot;font-size: 16px;&quot;&gt;WasteSearch.py&lt;/b&gt;&lt;br style=&quot;font-size: 16px;&quot;&gt;&lt;/font&gt;&lt;font style=&quot;font-size: 16px;&quot;&gt;&amp;nbsp;filters exchanges&amp;nbsp;&amp;nbsp;&lt;/font&gt;" style="html=1;rounded=1;snapToPoint=1;comic=0;fillColor=#6d8764;strokeColor=#3A5431;fontColor=#F0F0F0;labelBackgroundColor=none;strokeWidth=2;spacing=1;fontFamily=Lucida Console;fontSize=16;whiteSpace=wrap;align=center;verticalAlign=middle;spacingTop=1;spacingLeft=2;spacingRight=2;spacingBottom=2;shadow=0;backgroundOutline=0;sketchStyle=comic;" parent="1" vertex="1">
                    <mxGeometry x="119" y="344" width="130" height="80" as="geometry"/>
                </mxCell>
                <mxCell id="56" style="edgeStyle=none;html=1;entryX=0.25;entryY=0;entryDx=0;entryDy=0;fontSize=16;rounded=1;snapToPoint=1;comic=0;fillColor=#76608a;strokeColor=#432D57;labelBackgroundColor=none;strokeWidth=2;spacing=1;fontFamily=Lucida Console;align=center;verticalAlign=middle;spacingTop=1;spacingLeft=2;spacingRight=2;spacingBottom=2;fontColor=#F0F0F0;shadow=0;backgroundOutline=0;sketchStyle=comic;" parent="1" source="30" target="34" edge="1">
                    <mxGeometry relative="1" as="geometry"/>
                </mxCell>
                <mxCell id="57" style="edgeStyle=none;html=1;fontSize=16;rounded=1;snapToPoint=1;comic=0;fillColor=#76608a;strokeColor=#432D57;labelBackgroundColor=none;strokeWidth=2;spacing=1;fontFamily=Lucida Console;align=center;verticalAlign=middle;spacingTop=1;spacingLeft=2;spacingRight=2;spacingBottom=2;fontColor=#F0F0F0;shadow=0;backgroundOutline=0;sketchStyle=comic;" parent="1" source="30" target="44" edge="1">
                    <mxGeometry relative="1" as="geometry"/>
                </mxCell>
                <mxCell id="30" value="&lt;b style=&quot;font-size: 16px;&quot;&gt;Output:&lt;/b&gt;&lt;font style=&quot;font-size: 16px;&quot;&gt;&lt;br style=&quot;font-size: 16px;&quot;&gt;categorised exchanges&lt;br style=&quot;font-size: 16px;&quot;&gt;&lt;/font&gt;" style="shape=parallelogram;perimeter=parallelogramPerimeter;html=1;fixedSize=1;rounded=1;snapToPoint=1;comic=0;fillColor=#647687;strokeColor=#314354;fontColor=#F0F0F0;labelBackgroundColor=none;strokeWidth=2;spacing=1;fontFamily=Lucida Console;fontSize=16;whiteSpace=wrap;align=center;verticalAlign=middle;spacingTop=1;spacingLeft=2;spacingRight=2;spacingBottom=2;shadow=0;backgroundOutline=0;sketchStyle=comic;" parent="1" vertex="1">
                    <mxGeometry x="96" y="455" width="178" height="69" as="geometry"/>
                </mxCell>
                <mxCell id="68" value="" style="edgeStyle=none;html=1;fontSize=16;align=center;verticalAlign=middle;spacingTop=1;spacing=1;spacingLeft=2;spacingRight=2;spacingBottom=2;rounded=1;fontColor=#F0F0F0;shadow=0;backgroundOutline=0;sketchStyle=comic;" edge="1" parent="1" source="34" target="40">
                    <mxGeometry relative="1" as="geometry"/>
                </mxCell>
                <mxCell id="34" value="&lt;b style=&quot;font-size: 16px;&quot;&gt;dbMakeCustom.py&lt;br style=&quot;font-size: 16px;&quot;&gt;&lt;/b&gt;&lt;i style=&quot;font-size: 16px;&quot;&gt;&lt;font style=&quot;font-size: 16px;&quot;&gt;reads csv files converts to database&lt;/font&gt;&lt;br style=&quot;font-size: 16px;&quot;&gt;&lt;/i&gt;" style="movable=1;resizable=1;rotatable=1;deletable=1;editable=1;connectable=1;html=1;rounded=1;snapToPoint=1;comic=0;fillColor=#6d8764;strokeColor=#3A5431;fontColor=#F0F0F0;labelBackgroundColor=none;strokeWidth=2;spacing=1;fontFamily=Lucida Console;fontSize=16;whiteSpace=wrap;align=center;verticalAlign=middle;spacingTop=1;spacingLeft=2;spacingRight=2;spacingBottom=2;shadow=0;backgroundOutline=0;sketchStyle=comic;" parent="1" vertex="1">
                    <mxGeometry x="190.5" y="570" width="139.5" height="70" as="geometry"/>
                </mxCell>
                <mxCell id="43" value="" style="edgeStyle=none;html=1;rounded=1;snapToPoint=1;comic=0;fillColor=#76608a;strokeColor=#432D57;labelBackgroundColor=none;strokeWidth=2;spacing=1;fontFamily=Lucida Console;fontSize=16;align=center;verticalAlign=middle;spacingTop=1;spacingLeft=2;spacingRight=2;spacingBottom=2;fontColor=#F0F0F0;shadow=0;backgroundOutline=0;sketchStyle=comic;" parent="1" source="40" target="42" edge="1">
                    <mxGeometry relative="1" as="geometry"/>
                </mxCell>
                <mxCell id="40" value="&lt;i style=&quot;font-size: 16px;&quot;&gt;dbExcel2BW()&lt;/i&gt;&lt;br style=&quot;font-size: 16px;&quot;&gt;&lt;font style=&quot;font-size: 16px;&quot;&gt;builds db with bw2io&lt;/font&gt;" style="html=1;rounded=1;snapToPoint=1;comic=0;fillColor=#6d8764;strokeColor=#3A5431;fontColor=#F0F0F0;labelBackgroundColor=none;strokeWidth=2;spacing=1;fontFamily=Lucida Console;fontSize=16;whiteSpace=wrap;align=center;verticalAlign=middle;spacingTop=1;spacingLeft=2;spacingRight=2;spacingBottom=2;shadow=0;backgroundOutline=0;sketchStyle=comic;" parent="1" vertex="1">
                    <mxGeometry x="207" y="668" width="117" height="60" as="geometry"/>
                </mxCell>
                <mxCell id="54" value="" style="edgeStyle=none;html=1;entryX=0.5;entryY=0;entryDx=0;entryDy=0;rounded=1;snapToPoint=1;comic=0;fillColor=#76608a;strokeColor=#432D57;labelBackgroundColor=none;strokeWidth=2;spacing=1;fontFamily=Lucida Console;fontSize=16;align=center;verticalAlign=middle;spacingTop=1;spacingLeft=2;spacingRight=2;spacingBottom=2;fontColor=#F0F0F0;shadow=0;backgroundOutline=0;sketchStyle=comic;" parent="1" source="42" target="64" edge="1">
                    <mxGeometry relative="1" as="geometry">
                        <mxPoint x="287.5" y="890" as="targetPoint"/>
                    </mxGeometry>
                </mxCell>
                <mxCell id="69" style="edgeStyle=none;html=1;exitX=0.5;exitY=1;exitDx=0;exitDy=0;fontSize=16;align=center;verticalAlign=middle;spacingTop=1;spacing=1;spacingLeft=2;spacingRight=2;spacingBottom=2;rounded=1;fontColor=#F0F0F0;shadow=0;backgroundOutline=0;sketchStyle=comic;" edge="1" parent="1" source="42">
                    <mxGeometry relative="1" as="geometry">
                        <mxPoint x="243.913043478261" y="814.4347826086957" as="targetPoint"/>
                    </mxGeometry>
                </mxCell>
                <mxCell id="42" value="&lt;b style=&quot;font-size: 16px;&quot;&gt;Output:&lt;br style=&quot;font-size: 16px;&quot;&gt;&lt;/b&gt;&lt;font style=&quot;font-size: 16px;&quot;&gt;a 'biosphere' database&amp;nbsp;&lt;/font&gt;" style="shape=parallelogram;perimeter=parallelogramPerimeter;html=1;fixedSize=1;rounded=1;snapToPoint=1;comic=0;fillColor=#647687;strokeColor=#314354;fontColor=#F0F0F0;labelBackgroundColor=none;strokeWidth=2;spacing=1;fontFamily=Lucida Console;fontSize=16;whiteSpace=wrap;align=center;verticalAlign=middle;spacingTop=1;spacingLeft=2;spacingRight=2;spacingBottom=2;shadow=0;backgroundOutline=0;sketchStyle=comic;" parent="1" vertex="1">
                    <mxGeometry x="137" y="756" width="191" height="59" as="geometry"/>
                </mxCell>
                <mxCell id="48" value="" style="edgeStyle=none;html=1;rounded=1;snapToPoint=1;comic=0;fillColor=#76608a;strokeColor=#432D57;labelBackgroundColor=none;strokeWidth=2;spacing=1;fontFamily=Lucida Console;fontSize=16;align=center;verticalAlign=middle;spacingTop=1;spacingLeft=2;spacingRight=2;spacingBottom=2;fontColor=#F0F0F0;shadow=0;backgroundOutline=0;sketchStyle=comic;" parent="1" source="44" target="47" edge="1">
                    <mxGeometry relative="1" as="geometry"/>
                </mxCell>
                <mxCell id="44" value="&lt;b style=&quot;font-size: 16px;&quot;&gt;ExchangeEditor.py&lt;/b&gt;&lt;i style=&quot;font-size: 16px;&quot;&gt;&lt;br style=&quot;font-size: 16px;&quot;&gt;&lt;/i&gt;&lt;font style=&quot;font-size: 16px;&quot;&gt;uses bw2data to edit exchanges&lt;/font&gt;" style="rounded=1;html=1;snapToPoint=1;comic=0;fillColor=#6d8764;strokeColor=#3A5431;fontColor=#F0F0F0;labelBackgroundColor=none;strokeWidth=2;spacing=1;fontFamily=Lucida Console;fontSize=16;whiteSpace=wrap;align=center;verticalAlign=middle;spacingTop=1;spacingLeft=2;spacingRight=2;spacingBottom=2;shadow=0;backgroundOutline=0;sketchStyle=comic;" parent="1" vertex="1">
                    <mxGeometry x="31" y="570" width="140" height="70" as="geometry"/>
                </mxCell>
                <mxCell id="55" value="" style="edgeStyle=none;html=1;rounded=1;snapToPoint=1;comic=0;fillColor=#76608a;strokeColor=#432D57;labelBackgroundColor=none;strokeWidth=2;spacing=1;fontFamily=Lucida Console;entryX=0.332;entryY=0.013;entryDx=0;entryDy=0;entryPerimeter=0;fontSize=16;align=center;verticalAlign=middle;spacingTop=1;spacingLeft=2;spacingRight=2;spacingBottom=2;fontColor=#F0F0F0;shadow=0;backgroundOutline=0;sketchStyle=comic;" parent="1" source="47" target="51" edge="1">
                    <mxGeometry relative="1" as="geometry">
                        <mxPoint x="157" y="982" as="targetPoint"/>
                    </mxGeometry>
                </mxCell>
                <mxCell id="47" value="&lt;b style=&quot;font-size: 16px;&quot;&gt;Output:&lt;/b&gt;&lt;br style=&quot;font-size: 16px;&quot;&gt;&lt;div style=&quot;font-size: 16px;&quot;&gt;&lt;span style=&quot;font-size: 16px;&quot;&gt;&lt;font style=&quot;font-size: 16px;&quot;&gt;&amp;nbsp;edited technosphere&amp;nbsp;&lt;/font&gt;&lt;/span&gt;&lt;/div&gt;" style="shape=parallelogram;perimeter=parallelogramPerimeter;html=1;fixedSize=1;rounded=1;snapToPoint=1;comic=0;fillColor=#647687;strokeColor=#314354;fontColor=#F0F0F0;labelBackgroundColor=none;strokeWidth=2;spacing=1;fontFamily=Lucida Console;fontSize=16;whiteSpace=wrap;align=center;verticalAlign=middle;spacingTop=1;spacingLeft=2;spacingRight=2;spacingBottom=2;shadow=0;backgroundOutline=0;sketchStyle=comic;" parent="1" vertex="1">
                    <mxGeometry x="16" y="662" width="165" height="60" as="geometry"/>
                </mxCell>
                <mxCell id="51" value="&lt;b style=&quot;&quot;&gt;&lt;font style=&quot;font-size: 22px;&quot;&gt;End&lt;/font&gt;&lt;/b&gt;" style="html=1;dashed=0;whitespace=wrap;shape=mxgraph.dfd.start;rounded=1;snapToPoint=1;comic=0;fillColor=#432D57;strokeColor=#432D57;fontColor=#F0F0F0;labelBackgroundColor=none;strokeWidth=2;spacing=1;fontFamily=Lucida Console;fontSize=16;whiteSpace=wrap;align=center;verticalAlign=middle;spacingTop=1;spacingLeft=2;spacingRight=2;spacingBottom=2;shadow=0;backgroundOutline=0;sketchStyle=comic;" parent="1" vertex="1">
                    <mxGeometry x="101" y="935" width="142" height="35" as="geometry"/>
                </mxCell>
                <mxCell id="59" value="" style="shape=singleArrow;direction=south;html=1;fontSize=16;rounded=1;snapToPoint=1;comic=0;fillColor=#76608a;strokeColor=#432D57;fontColor=#F0F0F0;labelBackgroundColor=none;strokeWidth=2;spacing=1;fontFamily=Lucida Console;whiteSpace=wrap;align=center;verticalAlign=middle;spacingTop=1;spacingLeft=2;spacingRight=2;spacingBottom=2;shadow=0;backgroundOutline=0;sketchStyle=comic;" parent="1" vertex="1">
                    <mxGeometry x="145.44000000000003" y="975" width="17.12" height="30" as="geometry"/>
                </mxCell>
                <mxCell id="62" value="&lt;font style=&quot;font-size: 16px;&quot;&gt;&lt;b style=&quot;font-size: 16px;&quot;&gt;Application in&amp;nbsp;&lt;/b&gt;&lt;b style=&quot;font-size: 16px;&quot;&gt;LCIA&lt;/b&gt;&lt;/font&gt;&lt;font style=&quot;font-size: 16px;&quot;&gt;&lt;br style=&quot;font-size: 16px;&quot;&gt;&lt;/font&gt;" style="shape=hexagon;perimeter=hexagonPerimeter2;html=1;size=0.25;fontSize=16;labelBackgroundColor=none;rounded=1;snapToPoint=1;comic=0;fillColor=#875C05;strokeColor=#BD7000;fontColor=#F0F0F0;strokeWidth=2;spacing=1;fontFamily=Lucida Console;verticalAlign=middle;whiteSpace=wrap;align=center;spacingTop=1;spacingLeft=2;spacingRight=2;spacingBottom=2;shadow=0;backgroundOutline=0;sketchStyle=comic;" parent="1" vertex="1">
                    <mxGeometry x="43.99999999999999" y="1013" width="256.24" height="47" as="geometry"/>
                </mxCell>
                <mxCell id="65" style="edgeStyle=none;html=1;entryX=0.656;entryY=0.017;entryDx=0;entryDy=0;entryPerimeter=0;fontSize=16;rounded=1;snapToPoint=1;comic=0;fillColor=#76608a;strokeColor=#432D57;labelBackgroundColor=none;strokeWidth=2;spacing=1;fontFamily=Lucida Console;exitX=0.25;exitY=1;exitDx=0;exitDy=0;align=center;verticalAlign=middle;spacingTop=1;spacingLeft=2;spacingRight=2;spacingBottom=2;fontColor=#F0F0F0;shadow=0;backgroundOutline=0;sketchStyle=comic;" parent="1" source="64" target="51" edge="1">
                    <mxGeometry relative="1" as="geometry"/>
                </mxCell>
                <mxCell id="64" value="&lt;span style=&quot;font-size: 16px;&quot;&gt;&lt;font style=&quot;font-size: 16px;&quot;&gt;&lt;b style=&quot;font-size: 16px;&quot;&gt;MethodEditor.py&lt;/b&gt;&lt;i style=&quot;font-size: 16px;&quot;&gt;&lt;br style=&quot;font-size: 16px;&quot;&gt;&lt;/i&gt;custom waste methods&lt;br style=&quot;font-size: 16px;&quot;&gt;&lt;/font&gt;&lt;/span&gt;" style="html=1;dashed=0;whitespace=wrap;labelBackgroundColor=none;fontSize=16;rounded=1;snapToPoint=1;comic=0;fillColor=#6d8764;strokeColor=#3A5431;fontColor=#F0F0F0;strokeWidth=2;spacing=1;fontFamily=Lucida Console;whiteSpace=wrap;align=center;verticalAlign=middle;spacingTop=1;spacingLeft=2;spacingRight=2;spacingBottom=2;shadow=0;backgroundOutline=0;sketchStyle=comic;" parent="1" vertex="1">
                    <mxGeometry x="158.5" y="839" width="153.5" height="67" as="geometry"/>
                </mxCell>
                <mxCell id="eWnoPjXooAndC6K8hpsd-65" value="" style="shape=singleArrow;direction=south;html=1;fontSize=16;rounded=1;snapToPoint=1;comic=0;fillColor=#76608a;strokeColor=#432D57;fontColor=#F0F0F0;labelBackgroundColor=none;strokeWidth=2;spacing=1;fontFamily=Lucida Console;whiteSpace=wrap;align=center;verticalAlign=middle;spacingTop=1;spacingLeft=2;spacingRight=2;spacingBottom=2;shadow=0;backgroundOutline=0;sketchStyle=comic;" parent="1" vertex="1">
                    <mxGeometry x="171.44000000000003" y="980" width="17.12" height="30" as="geometry"/>
                </mxCell>
                <mxCell id="67" value="" style="edgeStyle=none;html=1;fontSize=16;align=center;verticalAlign=middle;spacingTop=1;spacing=1;spacingLeft=2;spacingRight=2;spacingBottom=2;rounded=1;fontColor=#F0F0F0;shadow=0;backgroundOutline=0;sketchStyle=comic;" edge="1" parent="1" source="66" target="14">
                    <mxGeometry relative="1" as="geometry"/>
                </mxCell>
                <mxCell id="66" value="&lt;b style=&quot;&quot;&gt;&lt;font style=&quot;font-size: 22px;&quot;&gt;Start&lt;/font&gt;&lt;br style=&quot;font-size: 16px;&quot;&gt;&lt;/b&gt;" style="html=1;dashed=0;whitespace=wrap;shape=mxgraph.dfd.start;rounded=1;snapToPoint=1;comic=0;fillColor=#432D57;strokeColor=#432D57;fontColor=#F0F0F0;labelBackgroundColor=none;strokeWidth=2;spacing=1;fontFamily=Lucida Console;fontSize=16;whiteSpace=wrap;align=center;verticalAlign=middle;spacingTop=1;spacingLeft=2;spacingRight=2;spacingBottom=2;shadow=0;backgroundOutline=0;sketchStyle=comic;" vertex="1" parent="1">
                    <mxGeometry x="95.5" y="16" width="176.5" height="43" as="geometry"/>
                </mxCell>
            </root>
        </mxGraphModel>
    </diagram>
</mxfile>